<svg xmlns="http://www.w3.org/2000/svg" width="64" height="64" fill="none" viewBox="0 0 64 64" id="dashboard"><path fill="#fff" fill-rule="evenodd" d="M17.286 8H20.714C21.9164 7.99999 22.8862 7.99998 23.6756 8.05384 24.4872 8.10922 25.205 8.22597 25.8846 8.50747 27.5181 9.1841 28.8159 10.4819 29.4925 12.1154 29.774 12.795 29.8908 13.5128 29.9462 14.3244 30 15.1138 30 16.0836 30 17.286V20.714C30 21.9164 30 22.8863 29.9462 23.6756 29.8908 24.4872 29.774 25.205 29.4925 25.8846 28.8159 27.5181 27.5181 28.8159 25.8846 29.4925 25.205 29.774 24.4872 29.8908 23.6756 29.9462 22.8862 30 21.9164 30 20.714 30H17.286C16.0836 30 15.1138 30 14.3244 29.9462 13.5128 29.8908 12.795 29.774 12.1154 29.4925 10.4819 28.8159 9.1841 27.5181 8.50747 25.8846 8.22597 25.205 8.10922 24.4872 8.05384 23.6756 7.99998 22.8862 7.99999 21.9164 8 20.714V17.286C7.99999 16.0836 7.99998 15.1138 8.05384 14.3244 8.10922 13.5128 8.22597 12.795 8.50747 12.1154 9.1841 10.4819 10.4819 9.1841 12.1154 8.50747 12.795 8.22597 13.5128 8.10922 14.3244 8.05384 15.1138 7.99998 16.0836 7.99999 17.286 8zM14.5059 10.7143C13.83 10.7604 13.4364 10.8467 13.1359 10.9711 12.1558 11.3771 11.3771 12.1558 10.9711 13.1359 10.8467 13.4364 10.7604 13.83 10.7143 14.5059 10.6674 15.1938 10.6667 16.0726 10.6667 17.3333V20.6667C10.6667 21.9274 10.6674 22.8062 10.7143 23.4941 10.7604 24.17 10.8467 24.5636 10.9711 24.8641 11.3771 25.8442 12.1558 26.6229 13.1359 27.0289 13.4364 27.1533 13.83 27.2396 14.5059 27.2857 15.1938 27.3326 16.0726 27.3333 17.3333 27.3333H20.6667C21.9274 27.3333 22.8062 27.3326 23.4941 27.2857 24.17 27.2396 24.5636 27.1533 24.8641 27.0289 25.8442 26.6229 26.6229 25.8442 27.0289 24.8641 27.1533 24.5636 27.2396 24.17 27.2857 23.4941 27.3326 22.8062 27.3333 21.9274 27.3333 20.6667V17.3333C27.3333 16.0726 27.3326 15.1938 27.2857 14.5059 27.2396 13.83 27.1533 13.4364 27.0289 13.1359 26.6229 12.1558 25.8442 11.3771 24.8641 10.9711 24.5636 10.8467 24.17 10.7604 23.4941 10.7143 22.8062 10.6674 21.9274 10.6667 20.6667 10.6667H17.3333C16.0726 10.6667 15.1938 10.6674 14.5059 10.7143zM17.286 34H20.714C21.9164 34 22.8862 34 23.6756 34.0538 24.4872 34.1092 25.205 34.226 25.8846 34.5075 27.5181 35.1841 28.8159 36.4819 29.4925 38.1154 29.774 38.795 29.8908 39.5128 29.9462 40.3244 30 41.1138 30 42.0836 30 43.286V46.714C30 47.9164 30 48.8863 29.9462 49.6756 29.8908 50.4872 29.774 51.205 29.4925 51.8846 28.8159 53.5181 27.5181 54.8159 25.8846 55.4925 25.205 55.774 24.4872 55.8908 23.6756 55.9462 22.8862 56 21.9164 56 20.714 56H17.286C16.0836 56 15.1138 56 14.3244 55.9462 13.5128 55.8908 12.795 55.774 12.1154 55.4925 10.4819 54.8159 9.1841 53.5181 8.50747 51.8846 8.22597 51.205 8.10922 50.4872 8.05384 49.6756 7.99998 48.8862 7.99999 47.9164 8 46.714V43.286C7.99999 42.0836 7.99998 41.1138 8.05384 40.3244 8.10922 39.5128 8.22597 38.795 8.50747 38.1154 9.1841 36.4819 10.4819 35.1841 12.1154 34.5075 12.795 34.226 13.5128 34.1092 14.3244 34.0538 15.1138 34 16.0836 34 17.286 34zM14.5059 36.7143C13.83 36.7604 13.4364 36.8467 13.1359 36.9711 12.1558 37.3771 11.3771 38.1558 10.9711 39.1359 10.8467 39.4364 10.7604 39.83 10.7143 40.5059 10.6674 41.1938 10.6667 42.0726 10.6667 43.3333V46.6667C10.6667 47.9274 10.6674 48.8062 10.7143 49.4941 10.7604 50.17 10.8467 50.5636 10.9711 50.8641 11.3771 51.8442 12.1558 52.6229 13.1359 53.0289 13.4364 53.1533 13.83 53.2396 14.5059 53.2857 15.1938 53.3326 16.0726 53.3333 17.3333 53.3333H20.6667C21.9274 53.3333 22.8062 53.3326 23.4941 53.2857 24.17 53.2396 24.5636 53.1533 24.8641 53.0289 25.8442 52.6229 26.6229 51.8442 27.0289 50.8641 27.1533 50.5636 27.2396 50.17 27.2857 49.4941 27.3326 48.8062 27.3333 47.9274 27.3333 46.6667V43.3333C27.3333 42.0726 27.3326 41.1938 27.2857 40.5059 27.2396 39.83 27.1533 39.4364 27.0289 39.1359 26.6229 38.1558 25.8442 37.3771 24.8641 36.9711 24.5636 36.8467 24.17 36.7604 23.4941 36.7143 22.8062 36.6674 21.9274 36.6667 20.6667 36.6667H17.3333C16.0726 36.6667 15.1938 36.6674 14.5059 36.7143zM43.286 8H46.714C47.9164 7.99999 48.8862 7.99998 49.6756 8.05384 50.4872 8.10922 51.205 8.22597 51.8846 8.50747 53.5181 9.1841 54.8159 10.4819 55.4925 12.1154 55.774 12.795 55.8908 13.5128 55.9462 14.3244 56 15.1138 56 16.0836 56 17.286V20.714C56 21.9164 56 22.8863 55.9462 23.6756 55.8908 24.4872 55.774 25.205 55.4925 25.8846 54.8159 27.5181 53.5181 28.8159 51.8846 29.4925 51.205 29.774 50.4872 29.8908 49.6756 29.9462 48.8862 30 47.9164 30 46.714 30H43.286C42.0836 30 41.1138 30 40.3244 29.9462 39.5128 29.8908 38.795 29.774 38.1154 29.4925 36.4819 28.8159 35.1841 27.5181 34.5075 25.8846 34.226 25.205 34.1092 24.4872 34.0538 23.6756 34 22.8862 34 21.9164 34 20.714V17.286C34 16.0836 34 15.1138 34.0538 14.3244 34.1092 13.5128 34.226 12.795 34.5075 12.1154 35.1841 10.4819 36.4819 9.1841 38.1154 8.50747 38.795 8.22597 39.5128 8.10922 40.3244 8.05384 41.1138 7.99998 42.0836 7.99999 43.286 8zM40.5059 10.7143C39.83 10.7604 39.4364 10.8467 39.1359 10.9711 38.1558 11.3771 37.3771 12.1558 36.9711 13.1359 36.8467 13.4364 36.7604 13.83 36.7143 14.5059 36.6674 15.1938 36.6667 16.0726 36.6667 17.3333V20.6667C36.6667 21.9274 36.6674 22.8062 36.7143 23.4941 36.7604 24.17 36.8467 24.5636 36.9711 24.8641 37.3771 25.8442 38.1558 26.6229 39.1359 27.0289 39.4364 27.1533 39.83 27.2396 40.5059 27.2857 41.1938 27.3326 42.0726 27.3333 43.3333 27.3333H46.6667C47.9274 27.3333 48.8062 27.3326 49.4941 27.2857 50.17 27.2396 50.5636 27.1533 50.8641 27.0289 51.8442 26.6229 52.6229 25.8442 53.0289 24.8641 53.1533 24.5636 53.2396 24.17 53.2857 23.4941 53.3326 22.8062 53.3333 21.9274 53.3333 20.6667V17.3333C53.3333 16.0726 53.3326 15.1938 53.2857 14.5059 53.2396 13.83 53.1533 13.4364 53.0289 13.1359 52.6229 12.1558 51.8442 11.3771 50.8641 10.9711 50.5636 10.8467 50.17 10.7604 49.4941 10.7143 48.8062 10.6674 47.9274 10.6667 46.6667 10.6667H43.3333C42.0726 10.6667 41.1938 10.6674 40.5059 10.7143zM43.286 34H46.714C47.9164 34 48.8862 34 49.6756 34.0538 50.4872 34.1092 51.205 34.226 51.8846 34.5075 53.5181 35.1841 54.8159 36.4819 55.4925 38.1154 55.774 38.795 55.8908 39.5128 55.9462 40.3244 56 41.1138 56 42.0836 56 43.286V46.714C56 47.9164 56 48.8863 55.9462 49.6756 55.8908 50.4872 55.774 51.205 55.4925 51.8846 54.8159 53.5181 53.5181 54.8159 51.8846 55.4925 51.205 55.774 50.4872 55.8908 49.6756 55.9462 48.8862 56 47.9164 56 46.714 56H43.286C42.0836 56 41.1138 56 40.3244 55.9462 39.5128 55.8908 38.795 55.774 38.1154 55.4925 36.4819 54.8159 35.1841 53.5181 34.5075 51.8846 34.226 51.205 34.1092 50.4872 34.0538 49.6756 34 48.8862 34 47.9164 34 46.714V43.286C34 42.0836 34 41.1138 34.0538 40.3244 34.1092 39.5128 34.226 38.795 34.5075 38.1154 35.1841 36.4819 36.4819 35.1841 38.1154 34.5075 38.795 34.226 39.5128 34.1092 40.3244 34.0538 41.1138 34 42.0836 34 43.286 34zM40.5059 36.7143C39.83 36.7604 39.4364 36.8467 39.1359 36.9711 38.1558 37.3771 37.3771 38.1558 36.9711 39.1359 36.8467 39.4364 36.7604 39.83 36.7143 40.5059 36.6674 41.1938 36.6667 42.0726 36.6667 43.3333V46.6667C36.6667 47.9274 36.6674 48.8062 36.7143 49.4941 36.7604 50.17 36.8467 50.5636 36.9711 50.8641 37.3771 51.8442 38.1558 52.6229 39.1359 53.0289 39.4364 53.1533 39.83 53.2396 40.5059 53.2857 41.1938 53.3326 42.0726 53.3333 43.3333 53.3333H46.6667C47.9274 53.3333 48.8062 53.3326 49.4941 53.2857 50.17 53.2396 50.5636 53.1533 50.8641 53.0289 51.8442 52.6229 52.6229 51.8442 53.0289 50.8641 53.1533 50.5636 53.2396 50.17 53.2857 49.4941 53.3326 48.8062 53.3333 47.9274 53.3333 46.6667V43.3333C53.3333 42.0726 53.3326 41.1938 53.2857 40.5059 53.2396 39.83 53.1533 39.4364 53.0289 39.1359 52.6229 38.1558 51.8442 37.3771 50.8641 36.9711 50.5636 36.8467 50.17 36.7604 49.4941 36.7143 48.8062 36.6674 47.9274 36.6667 46.6667 36.6667H43.3333C42.0726 36.6667 41.1938 36.6674 40.5059 36.7143z" clip-rule="evenodd"></path></svg>